<svg xmlns="http://www.w3.org/2000/svg" viewBox="0 0 225 53"><defs><style>.cls-1{fill:#aae100;}.cls-2{fill:#fff;}</style></defs><title>button</title><g id="Layer_2" data-name="Layer 2"><rect class="cls-1" width="225" height="53" rx="8.82" ry="8.82"/><path class="cls-2" d="M42,12a2.32,2.32,0,0,1,1.53.49,1.52,1.52,0,0,1,.59,1.22,1.42,1.42,0,0,1-.25.83,1.68,1.68,0,0,1-.72.57v.06a2,2,0,0,1,1.11.64,1.69,1.69,0,0,1,.4,1.12,1.81,1.81,0,0,1-.29,1,1.78,1.78,0,0,1-.8.67,3,3,0,0,1-1.21.22H39.47V12Zm-.35,2.83a1.26,1.26,0,0,0,.83-.25.85.85,0,0,0,.3-.69.77.77,0,0,0-.28-.63,1.1,1.1,0,0,0-.73-.23h-.95v1.8Zm.31,3a1.7,1.7,0,0,0,1-.25.86.86,0,0,0,.34-.74.81.81,0,0,0-.34-.69,1.49,1.49,0,0,0-.91-.25H40.79v1.93Z"/><path class="cls-2" d="M49,12v2.87h3.54V12h1.32v6.82H52.51V15.94H49v2.88H47.65V12Z"/><path class="cls-2" d="M61.64,12v1H58.55v1.79h3v1h-3v1.94h3.16v1H57.23V12Z"/><path class="cls-2" d="M68.42,11.91a4.92,4.92,0,0,1,1.14.13,5.73,5.73,0,0,1,1.2.45v1.24a5.67,5.67,0,0,0-1.16-.52A3.85,3.85,0,0,0,68.48,13a2.82,2.82,0,0,0-1.31.3,2.19,2.19,0,0,0-.91.85,2.46,2.46,0,0,0,0,2.44,2.16,2.16,0,0,0,.91.84,2.88,2.88,0,0,0,1.32.3,3.53,3.53,0,0,0,1.07-.16A7.74,7.74,0,0,0,70.84,17v1.24a5.93,5.93,0,0,1-1.22.49,5.13,5.13,0,0,1-1.3.15,4.22,4.22,0,0,1-1.93-.43,3.22,3.22,0,0,1-1.33-1.24,3.36,3.36,0,0,1-.49-1.77,3.49,3.49,0,0,1,.5-1.85,3.36,3.36,0,0,1,1.38-1.26A4.31,4.31,0,0,1,68.42,11.91Z"/><path class="cls-2" d="M79.65,12v1H77.23v5.79H75.91V13H73.49V12Z"/><path class="cls-2" d="M83.84,12v4.77L88.07,12h.7v6.82h-1.3v-4.6l-4.24,4.65h-.68V12Z"/><path class="cls-2" d="M98.14,12v4.77L102.37,12h.7v6.82h-1.3v-4.6l-4.24,4.65h-.68V12Z"/><path class="cls-2" d="M107.79,12v2.87h3.54V12h1.32v6.82h-1.32V15.94h-3.54v2.88h-1.32V12Z"/><path class="cls-2" d="M118.55,12a2.32,2.32,0,0,1,1.53.49,1.52,1.52,0,0,1,.59,1.22,1.42,1.42,0,0,1-.25.83,1.68,1.68,0,0,1-.72.57v.06a2,2,0,0,1,1.11.64,1.69,1.69,0,0,1,.4,1.12,1.81,1.81,0,0,1-.29,1,1.78,1.78,0,0,1-.8.67,3,3,0,0,1-1.21.22H116V12Zm-.35,2.83a1.26,1.26,0,0,0,.83-.25.85.85,0,0,0,.3-.69.77.77,0,0,0-.28-.63,1.1,1.1,0,0,0-.73-.23h-.95v1.8Zm.31,3a1.7,1.7,0,0,0,1-.25.86.86,0,0,0,.34-.74.81.81,0,0,0-.34-.69,1.49,1.49,0,0,0-.91-.25h-1.24v1.93Z"/><path class="cls-2" d="M128.64,12v1h-3.09v1.79h3v1h-3v1.94h3.16v1h-4.48V12Z"/><path class="cls-2" d="M135.42,11.91a4.92,4.92,0,0,1,1.14.13,5.73,5.73,0,0,1,1.2.45v1.24a5.67,5.67,0,0,0-1.16-.52,3.85,3.85,0,0,0-1.12-.16,2.82,2.82,0,0,0-1.31.3,2.19,2.19,0,0,0-.91.85,2.46,2.46,0,0,0,0,2.44,2.16,2.16,0,0,0,.91.84,2.88,2.88,0,0,0,1.32.3,3.53,3.53,0,0,0,1.07-.16,7.74,7.74,0,0,0,1.29-.58v1.24a5.93,5.93,0,0,1-1.22.49,5.13,5.13,0,0,1-1.3.15,4.22,4.22,0,0,1-1.93-.43,3.22,3.22,0,0,1-1.33-1.24,3.36,3.36,0,0,1-.49-1.77,3.49,3.49,0,0,1,.5-1.85,3.36,3.36,0,0,1,1.38-1.26A4.31,4.31,0,0,1,135.42,11.91Z"/><path class="cls-2" d="M146.65,12v1h-2.42v5.79h-1.32V13h-2.42V12Z"/><path class="cls-2" d="M150.84,12v4.77L155.07,12h.7v6.82h-1.3v-4.6l-4.24,4.65h-.68V12Z"/><path class="cls-2" d="M160.49,12v5.72H164V12h1.32v5.72h1.07v2.35h-1.3V18.82h-5.9V12Z"/><path class="cls-2" d="M170.55,12v4.77L174.77,12h.7v6.82h-1.3v-4.6l-4.24,4.65h-.68V12Z"/><path class="cls-2" d="M180.17,12v4.77L184.39,12h.7v6.82h-1.3v-4.6l-4.24,4.65h-.68V12Z"/><path class="cls-2" d="M110.46,24v4.77L114.69,24h.7v6.82h-1.3v-4.6l-4.24,4.65h-.68V24Z"/><path class="cls-2" d="M25.25,35.91a4.92,4.92,0,0,1,1.14.13,5.73,5.73,0,0,1,1.2.45v1.24a5.67,5.67,0,0,0-1.16-.52A3.85,3.85,0,0,0,25.3,37a2.82,2.82,0,0,0-1.31.3,2.19,2.19,0,0,0-.91.85,2.46,2.46,0,0,0,0,2.44,2.16,2.16,0,0,0,.91.84,2.88,2.88,0,0,0,1.32.3,3.53,3.53,0,0,0,1.07-.16A7.74,7.74,0,0,0,27.66,41v1.24a5.93,5.93,0,0,1-1.22.49,5.13,5.13,0,0,1-1.3.15,4.22,4.22,0,0,1-1.93-.43,3.22,3.22,0,0,1-1.33-1.24,3.36,3.36,0,0,1-.49-1.77,3.49,3.49,0,0,1,.5-1.85,3.36,3.36,0,0,1,1.38-1.26A4.31,4.31,0,0,1,25.25,35.91Z"/><path class="cls-2" d="M35,36v.7a4.08,4.08,0,0,1,1.71.34,2.6,2.6,0,0,1,1.13,1,2.64,2.64,0,0,1,.4,1.45,2.53,2.53,0,0,1-1.53,2.39,4.08,4.08,0,0,1-1.7.34v.73h-1.3v-.73a4,4,0,0,1-1.7-.35,2.64,2.64,0,0,1-1.13-1,2.58,2.58,0,0,1-.4-1.42A2.65,2.65,0,0,1,30.9,38,2.58,2.58,0,0,1,32,37a4.09,4.09,0,0,1,1.71-.34V36Zm-3.19,3.44a1.57,1.57,0,0,0,.5,1.23,2,2,0,0,0,1.38.46V37.71a2,2,0,0,0-1.39.45A1.57,1.57,0,0,0,31.85,39.39ZM35,41.08a2.07,2.07,0,0,0,1.39-.45,1.55,1.55,0,0,0,.5-1.23,1.6,1.6,0,0,0-.5-1.25A2,2,0,0,0,35,37.71Z"/><path class="cls-2" d="M44.87,35.91a4.1,4.1,0,0,1,1.91.44,3.45,3.45,0,0,1,0,6.11,4.31,4.31,0,0,1-3.86,0,3.37,3.37,0,0,1-1.83-3,3.43,3.43,0,0,1,.48-1.76,3.36,3.36,0,0,1,1.33-1.28A4.07,4.07,0,0,1,44.87,35.91Zm-2.41,3.5a2.43,2.43,0,0,0,.31,1.22,2.13,2.13,0,0,0,.86.84,2.56,2.56,0,0,0,1.24.3,2.37,2.37,0,0,0,1.73-.66,2.27,2.27,0,0,0,.68-1.7,2.46,2.46,0,0,0-.3-1.22,2.11,2.11,0,0,0-.86-.84,2.6,2.6,0,0,0-1.25-.3,2.57,2.57,0,0,0-1.25.3,2.08,2.08,0,0,0-.85.84A2.49,2.49,0,0,0,42.46,39.41Z"/><path class="cls-2" d="M54.4,36a2.2,2.2,0,0,1,1.55.55,1.86,1.86,0,0,1,.6,1.43,1.84,1.84,0,0,1-.61,1.43,2.29,2.29,0,0,1-1.6.55H53.08v2.86H51.76V36Zm-.33,2.93a1.27,1.27,0,0,0,.82-.24.87.87,0,0,0,.29-.72Q55.19,37,54,37h-.9v1.9Z"/><path class="cls-2" d="M60.69,36l2.24,2.69L65.17,36h1.18v6.82H65V38h0l-2,2.4h-.19l-2-2.4h0v4.79H59.5V36Z"/><path class="cls-2" d="M71,36v4.77L75.27,36H76v6.82h-1.3v-4.6l-4.24,4.65h-.68V36Z"/><path class="cls-2" d="M82,36a2.2,2.2,0,0,1,1.55.55,1.86,1.86,0,0,1,.6,1.43,1.84,1.84,0,0,1-.61,1.43A2.29,2.29,0,0,1,82,40H80.69v2.86H79.37V36Zm-.33,2.93a1.27,1.27,0,0,0,.82-.24A.87.87,0,0,0,82.8,38q0-.94-1.21-.94h-.9v1.9Z"/><path class="cls-2" d="M90.61,35.91a4.1,4.1,0,0,1,1.91.44,3.45,3.45,0,0,1,0,6.11,4.31,4.31,0,0,1-3.86,0,3.37,3.37,0,0,1-1.83-3,3.43,3.43,0,0,1,.48-1.76,3.36,3.36,0,0,1,1.33-1.28A4.07,4.07,0,0,1,90.61,35.91Zm-2.41,3.5a2.43,2.43,0,0,0,.31,1.22,2.13,2.13,0,0,0,.86.84,2.56,2.56,0,0,0,1.24.3,2.37,2.37,0,0,0,1.73-.66,2.27,2.27,0,0,0,.68-1.7,2.46,2.46,0,0,0-.3-1.22,2.11,2.11,0,0,0-.86-.84A2.6,2.6,0,0,0,90.6,37a2.57,2.57,0,0,0-1.25.3,2.08,2.08,0,0,0-.85.84A2.49,2.49,0,0,0,88.2,39.41Z"/><path class="cls-2" d="M100,36a2.32,2.32,0,0,1,1.53.49,1.52,1.52,0,0,1,.59,1.22,1.42,1.42,0,0,1-.25.83,1.68,1.68,0,0,1-.72.57v.06a2,2,0,0,1,1.11.64,1.69,1.69,0,0,1,.4,1.12,1.81,1.81,0,0,1-.29,1,1.78,1.78,0,0,1-.8.67,3,3,0,0,1-1.21.22H97.5V36Zm-.35,2.83a1.26,1.26,0,0,0,.83-.25.85.85,0,0,0,.3-.69.77.77,0,0,0-.28-.63,1.1,1.1,0,0,0-.73-.23h-.95v1.8Zm.31,3a1.7,1.7,0,0,0,1-.25.86.86,0,0,0,.34-.74.81.81,0,0,0-.34-.69,1.49,1.49,0,0,0-.91-.25H98.82v1.93Z"/><path class="cls-2" d="M109.14,36l3,6.82h-1.39L110,41.16h-3l-.66,1.66H105L107.79,36Zm-1.72,4.16h2.2l-1.15-2.7Z"/><path class="cls-2" d="M119.71,36v1h-2.42v5.79H116V37h-2.42V36Z"/><path class="cls-2" d="M123.93,36v2.66H125a2.79,2.79,0,0,1,1.83.56,2,2,0,0,1,0,3,2.7,2.7,0,0,1-1.79.56h-2.48V36Zm1.18,5.79a1.07,1.07,0,0,0,.79-.29,1,1,0,0,0,.29-.75,1,1,0,0,0-.3-.77,1.09,1.09,0,0,0-.8-.3h-1.16v2.11Z"/><path class="cls-2" d="M141.4,36v6.82h-1.33V37.07h-3.59v5.75h-1.32V36Z"/><path class="cls-2" d="M148.29,35.91a4.1,4.1,0,0,1,1.91.44,3.45,3.45,0,0,1,0,6.11,4.31,4.31,0,0,1-3.86,0,3.37,3.37,0,0,1-1.83-3,3.43,3.43,0,0,1,.48-1.76,3.36,3.36,0,0,1,1.33-1.28A4.07,4.07,0,0,1,148.29,35.91Zm-2.41,3.5a2.43,2.43,0,0,0,.31,1.22,2.13,2.13,0,0,0,.86.84,2.56,2.56,0,0,0,1.24.3,2.37,2.37,0,0,0,1.73-.66,2.27,2.27,0,0,0,.68-1.7,2.46,2.46,0,0,0-.3-1.22,2.11,2.11,0,0,0-.86-.84,2.6,2.6,0,0,0-1.25-.3,2.57,2.57,0,0,0-1.25.3,2.08,2.08,0,0,0-.85.84A2.49,2.49,0,0,0,145.89,39.41Z"/><path class="cls-2" d="M157.83,36a2.2,2.2,0,0,1,1.55.55A1.86,1.86,0,0,1,160,38a1.84,1.84,0,0,1-.61,1.43,2.29,2.29,0,0,1-1.6.55h-1.27v2.86h-1.32V36Zm-.33,2.93a1.27,1.27,0,0,0,.82-.24.87.87,0,0,0,.29-.72q0-.94-1.21-.94h-.9v1.9Z"/><path class="cls-2" d="M168.59,36v1h-2.42v5.79h-1.32V37h-2.42V36Z"/><path class="cls-2" d="M175.41,36v.7a4.08,4.08,0,0,1,1.71.34,2.6,2.6,0,0,1,1.13,1,2.64,2.64,0,0,1,.4,1.45,2.53,2.53,0,0,1-1.53,2.39,4.08,4.08,0,0,1-1.7.34v.73h-1.3v-.73a4,4,0,0,1-1.7-.35,2.64,2.64,0,0,1-1.13-1,2.58,2.58,0,0,1-.4-1.42,2.65,2.65,0,0,1,.4-1.44,2.58,2.58,0,0,1,1.13-1,4.09,4.09,0,0,1,1.71-.34V36Zm-3.19,3.44a1.57,1.57,0,0,0,.5,1.23,2,2,0,0,0,1.38.46V37.71a2,2,0,0,0-1.39.45A1.57,1.57,0,0,0,172.22,39.39Zm3.19,1.69a2.07,2.07,0,0,0,1.39-.45,1.55,1.55,0,0,0,.5-1.23,1.6,1.6,0,0,0-.5-1.25,2,2,0,0,0-1.39-.45Z"/><path class="cls-2" d="M186.15,36v1h-3.09v1.79h3v1h-3v1.94h3.16v1h-4.48V36Z"/><path class="cls-2" d="M192.69,36l3.08,6.82H194.4l-2.27-5.25-2.19,5.25h-1.33l3-6.82Z"/><path class="cls-2" d="M199.75,36v2.66h1.1a2.79,2.79,0,0,1,1.83.56,2,2,0,0,1,0,3,2.7,2.7,0,0,1-1.79.56h-2.48V36Zm1.18,5.79a1.07,1.07,0,0,0,.79-.29,1,1,0,0,0,.29-.75,1,1,0,0,0-.3-.77,1.09,1.09,0,0,0-.8-.3h-1.16v2.11Z"/></g></svg>