<svg xmlns="http://www.w3.org/2000/svg" viewBox="0 0 242 54"><defs><style>.cls-1{opacity:0.85;}.cls-2{fill:#f8f8f8;}.cls-3{fill:#fcfcfc;}.cls-4{fill:#f4f4f4;}.cls-5{fill:#ebebeb;}.cls-6{fill:#e9e9e9;}.cls-7{fill:#f1f1f1;}.cls-8{fill:#eee;}.cls-9{fill:#e6e6e6;}.cls-10{fill:#515751;}</style></defs><title>riskup</title><g id="Layer_3" data-name="Layer 3"><g class="cls-1"><g class="cls-1"><path class="cls-2" d="M59.64,47.75c2,.2,4.09.41,6.22.67l-.17,1.38c.46.35,1.46.25,2.29.26,1.53-.32.79-1.09,1-1.6,1-.39,2.24-.72,3.28-1.11,4-.12,74.37,2.4,78.36,2.29,2.64.09,5.27.25,7.9.4a3.15,3.15,0,0,1,.76.53L159.13,52c-6.19-.9-7.43,1.28-11.27,1.51-7.62-1.38-75.84-1.27-84-2.31-1.79-.26-3.59-.46-5.38-.65-1.06-.83-2-1.71-2.85-2.53Z"/><path class="cls-3" d="M69,48.46c-.23.52.51,1.28-1,1.6-.83,0-1.83.09-2.29-.26l.17-1.38Z"/><path class="cls-2" d="M232.31,25.27c4.56-.74,4.31,1.33.37,2.49l-.63-.24Z"/><path class="cls-3" d="M232.05,27.52c1.44-1-.39-2.32,2.54-1.93C234.52,26.22,234.77,26.92,232.05,27.52Z"/><path class="cls-4" d="M228.57,36.56l-8,.41-9,2.12a25.64,25.64,0,0,0-2.15-1.42c1.49-1.42-2-1.71-2.78-3.1-2.17.14-4.34.28-6.51.48l.14-1.15a27.54,27.54,0,0,1,7.93.11c2.7-.42,5.21-.68,6.45.09,2.84-.19,5.85-.44,8.85-.68l1.49,0c.75.64,1.5,1.29,2.24,2C227.67,35.8,228.12,36.16,228.57,36.56Z"/><path class="cls-2" d="M211.55,39.09c-1,0-2.17.14-3.17.24a77.8,77.8,0,0,1-9.32-1c-16.31-.64-33.1-2.91-50.7-2.41-8.53-.64-17.22-1.35-28.13-2.89l7.17-.42c6.58.38,15.45.92,23-.25,11.05.33,16.46,2.26,26.91.68l3.14,0c3.83,1.21,6.19,2.23,9.42,1.52l.13-1.1,4.79.07,0,.23,4.79.07h.66l-.14,1.15c2.17-.2,4.34-.34,6.51-.48.83,1.4,4.27,1.68,2.78,3.1A25.64,25.64,0,0,1,211.55,39.09Z"/><path class="cls-4" d="M189.9,34.62c-3.23.7-5.59-.31-9.42-1.52,3.3.11,6.42.27,9.55.43Z"/><path class="cls-4" d="M177.34,33.05c-10.45,1.58-15.85-.34-26.91-.68-7.58,1.16-16.46.63-23,.25l-7.17.42-1.65,0a12.94,12.94,0,0,0-1.49-1.41c-3.27,1.05-7.29.07-9.52.73-3.11-.28-6.4-.5-9.52-.72-13.37-.37-21.24-2.33-32.39-1.85-6-1.18-16.35-.35-23.67-1.44l-5.45-.08L34,28.73l-6.71-.15-3.37-.08-1.69,0h-.15c0,3.51,0-4.78,0-3.93h0V24.4s.06.07,0,0,0,0,0,0h3.85v.26l0,.84-.08,3.36v.52H22l0,0h0s-.08,0,0,0h1.23v-.19c0-.34,0-.67,0-1l-.17-1.94,0-1.37v-.49H22s0,0,0,0a.18.18,0,0,1,0-.06.39.39,0,0,1,0,.09v0h0c0,2,0,.57,0,1h.79l4.38.06,11,.68L41.72,25l4,.06c1.37,1.06,5.25.42,7.83,1,1.5-.09,3.17-.19,4.66-.22l5.56.6c4.36.93,4.87,2.21,8.56,1.8,2.11.32,3-.42,4.86-.45,5.38.71,4-.29,5.52-.5l6.45.09A43.35,43.35,0,0,0,97,28l5.45.08a9.19,9.19,0,0,1,.73.82l3.17-.24,11,.45a12.15,12.15,0,0,1,1.49,1.41c4.26.41,3.57-.76,4.92-1l3.14,0h.82l5.4.6,11.9.17,3.87.92,4.79.07,7.87.63,7.93.12c2.12.26,4.25.47,6.38.67A12.68,12.68,0,0,1,177.34,33.05Z"/><path class="cls-4" d="M164.88,11c-.34.05-.52.17-.85.22-4.54.57-8,.23-11.18.71l-3-.91a20.21,20.21,0,0,0-4,.23l-2.51.25c-1.47-.19-3.1-.39-4.56-.64.59-.8,1.18-1.6,1.78-2.46,2.48,0,4.81-.1,7.14-.19,2.47.15,4.77.3,7.24.39a11.83,11.83,0,0,0,3.24-.76c3-.3,4.4.53,6.88,2l0,.29Z"/><path class="cls-5" d="M203.57,19.85a19.77,19.77,0,0,0-2.44,1.06c-4.74.91-6.79,1.4-10.61,1.52-3.9-.64-5.71-.72-7.9-.4l-.06.52-5.45-.08a3.08,3.08,0,0,1-.77-.53c-2.95-.27-5.73-.49-8.69-.7-1.32-.08-2.62-.21-3.93-.35a11.8,11.8,0,0,1-1.68.26l-1.49,0-6.48.2c-2.55-2.29-4.29-.18-6.25-.38-4.51.4-8.9-.3-11.86-.46l-5.6-.31-5.45-.08c.54-1.73-5-.82-6.91-1.77-.8-.24-1.6-.42-2.41-.61l-4.8-.07c-1.36.27-2,1.13-4.07.81A15.91,15.91,0,0,0,104.57,17a26,26,0,0,1-4.75-.36l-1.49,0-2.57.77c-1.45-.37-3.05-.8-4.67-1.17a14.57,14.57,0,0,0-1.52.27c-3.46-.17-6.92-.33-10.38-.44l-2.31,0L77,14.67a17,17,0,0,0-7-.91l.14-1.15,3.16-.18c4.28.23,5.22-.74,7.21-.77h.83l3,.91c3.59.46,5.38-.67,8.07-1l1.65,0,7,1,3.14,0c5.69.89,7.75.23,8.79-.16.82.07,1.63.2,2.28.32,1.11.36,2.06.78,3.17,1.15,3.08.56,3.93-1,6.41-1l4.73.59c1.44.42,3.05.79,4.66,1.22,1.48.08,2.09-.89,4-.52,1,.36,1.89.78,3,1.14,3.6.4,1-1.14,4.13-1.33l3.14,0,0-.29,3.14,0c.41-.63.65-1.26,1.05-1.89,3.2-.47,6.64-.14,11.18-.71l-.27,2.25c.31.18.45.35.76.53.8.24,1.61.43,2.24.61-1,1.49-3.88.64-5.65,1.6a6.7,6.7,0,0,0-1,1.37,11.85,11.85,0,0,0,1.52,1.12c1.48.08,3.12.22,4.59.36l11.24.16a6.67,6.67,0,0,0,3.21-.53c-.32-1.51-5.93-1.65-4.4-3.36a87.78,87.78,0,0,0,13.45,1c3.1.34,6.21.67,9.33.94l2.48,0a24.94,24.94,0,0,0,2.15,1.42Z"/><path class="cls-6" d="M116.24,19.11l-5.65.21-3.14,0c-.48-.12-1-.19-1.45-.31l-5.56-.6c-1.64-.14-3.66.12-4.76-.36-2.12-.26-4.08-.46-6.21-.67l-4,.23,1.29,1.7-.06.52a12.49,12.49,0,0,1,1.49,1.41,10.12,10.12,0,0,1-1.72.55l-3.14,0-4-.06c-.46-.3-.92-.59-1.39-.83l-7.31.13L70,20.7c-.65-.12-1.12-.25-1.62-.31a42.9,42.9,0,0,1-8.85.68c-1-1.28-3.34-1.2-4.7-.88-1.5,0-3.16.13-4.67.22.13.35.42.7.53,1.11-.2.35-.58.74-.79,1.09-2,0-3.82.12-5.65.21-2.22.6-4,.23-5.71.73L35.5,23l-3.2.47c-.48-.18-1-.36-1.59-.54l-4.63-.07-3.37.47L22,23.24a1,1,0,0,0-.19,0,.87.87,0,0,0-.34,0,1.5,1.5,0,0,0-.54.27,3.16,3.16,0,0,1-.9.58,1.36,1.36,0,0,0,0,.22,2.71,2.71,0,0,0,0,.33v1l0,2c.51.56,1.08,1.12,1.65,1.68v.18a.07.07,0,0,1,0,0s0,0,0,.06,0,.07,0,.12a19,19,0,0,1-1.77.85,2.43,2.43,0,0,0,.78,1,4.57,4.57,0,0,1,1.46-.29c1.16,0,2.48,0,3.72,0,.22-.4.59-.74.8-1.14l4.82-.16,4.76.3c.34-.05.51-.16.85-.22l10.25.15,2.58-.83a18.26,18.26,0,0,0,2.24.61l4,.06c1.31.08,2.62.21,3.94.35l6.25.32-.14,1.15a9.72,9.72,0,0,1-6.28-.09l-5.75,1,3.21.86c8-.75,9.55,1.87,17.95,2.23-1.42.85-4.32.17-5.71.73l-11.9-.17c-.68.11-1.51.21-2.35.26L55,39.07c1.64.14,3.11.27,4.76.36,4-.58,5.35-.44,6.24.38l5.75-1c1.76.49.69,1.11,2.12,1.65l1.65,0c1.76.55,69.93,3.61,71.69,4.1,1.63.25,3.26.45,4.73.65,1.63.2,3.1.39,4.72.65,5.09.36,10-1.65,12.67.7l-3.27,1.05a5.54,5.54,0,0,0-4.06.81c-2.2.43-1.67,1.48-3.51,1.63-2.63-.15-5.26-.31-7.9-.4l-3-1.14c.34-1.44-70.56-3.91-73.31-4.41-4.06-.7-2.11,1.07-5,1.32l-4.85.45-2.31,0-5.59-.31a4.39,4.39,0,0,0-4.43-1.74c-1.63-.2-3.26-.39-4.72-.65.88-.45,1.6-.9,2.48-1.35l2.48,0c2.45-1.12,1.37-1.77,1-2.47l-4.66.22-8.76-.13-1.62-.31c-1-.31-2.08-.61-3-.85q-3.26.21-4.13,1.33c-1.79-.26-3.59-.46-5.55-.66a8.31,8.31,0,0,1-2.14.61,12,12,0,0,1-1.25.13h-.57c-.24,0-.49,0-.74-.05a9,9,0,0,1-1.48-.3,9.37,9.37,0,0,1-5.06-4.55,9.76,9.76,0,0,1-1.43-2.5,10.2,10.2,0,0,1-.62-2.85L12,26.65l.29-2,0-.24.05-.5a7.69,7.69,0,0,1,.18-1,9.27,9.27,0,0,1,.67-2,15.12,15.12,0,0,1,2.08-3.3L16.56,16a6.29,6.29,0,0,1,1.3-1.3,6.51,6.51,0,0,1,3-1.09c.27,0,.53,0,.8,0h.59l.68,0,1.37.09,2.86.18c-1,1.2-1.94,2.4-2.91,3.54a14.22,14.22,0,0,1,8.69.7l3.14,0c.51-.11,1-.16,1.69-.26,1.47.2,3.1.39,4.73.65l.13-1.09c1.35-.21,2.53-.37,4-.52.06-.52,2.5-.14,4.66-.22l.13-1.1c2.67-.14,5.33-.27,8-.46,1.62.31,3.24.62,4.69.93l4.89-.8c2.62.27,5.24.48,7.87.69l2.31,0c3.46.11,6.92.27,10.38.44a14.57,14.57,0,0,1,1.52-.27c1.61.37,3.22.8,4.67,1.17l2.57-.77,1.49,0a26,26,0,0,0,4.75.36,15.91,15.91,0,0,1,2.15,1.42,41,41,0,0,1,8.86-.74c.81.19,1.61.37,2.41.61A17.3,17.3,0,0,0,116.24,19.11Z"/><path class="cls-4" d="M109.29,10.68c-2.09.9-3,1.86-5,1.89l-3.14,0,.2-1.67c2.17-.14,4.18-.29,6.35-.49C108.32,10.5,108.8,10.62,109.29,10.68Z"/><path class="cls-7" d="M78.29,11.1l-4-.06-8,.4-5.62-.08-5.46-.08L53.07,8.78c-1.53.32-3.23.7-4.92,1-.71.45-1.59.9-2.48,1.35l-4.79-.07-.79-.3-10.39,1a6.06,6.06,0,0,0-.76-.59c-2.11-.32-4.07-.64-6.19-.9l-.63.16a2.64,2.64,0,0,1-.35,0l-.47.06c-.31,0-.62.09-.92.16A13.68,13.68,0,0,0,16.93,12a12.86,12.86,0,0,0-5.15,4.85,12.88,12.88,0,0,0-3.54,7l-.08.51,0,.13,0,0,0,.09L8,24.9l-.25.68-.5,1.33L6.8,25.62,6.61,25l-.1-.32,0-.16,0-.08,0-.26A16.32,16.32,0,0,1,8,15.83,16.11,16.11,0,0,1,20.41,8.53c.4,0,.8,0,1.2,0h.5l.17,0,.68.09c2.67-.19,5.33-.33,8-.46l4,.06c.87-.33,1.58-.73,2.45-1.06a26.22,26.22,0,0,1,4.76.36c1.65.08,3.12.22,4.76.36l6.25.32c2.63.15,5.26.31,7.9.4,5.62,0,11.09,0,16.72,0a2.09,2.09,0,0,0,.79.3Z"/><path class="cls-4" d="M73.33,12.42l-3.16.18-3.84-1.15,8-.4C74.4,11.74,72.89,11.89,73.33,12.42Z"/><path class="cls-4" d="M69,15.36l-4.89.8c-1.45-.31-3.07-.62-4.69-.93-2.67.19-5.34.33-8,.46L39.69,14.13a2.79,2.79,0,0,0,.89-.56l5.65-.15c2.34-.2,4.84-.33,7.18-.47l7,1.2,7.9.41C69.05,15,69,15.19,69,15.36Z"/><path class="cls-4" d="M53.47,12.36l-7-.62a6.49,6.49,0,0,1-.76-.59c.89-.45,1.77-.9,2.48-1.35,1.69-.32,3.4-.7,4.92-1l2.18,2.52A16.63,16.63,0,0,0,53.47,12.36Z"/><path class="cls-4" d="M12,26.65l.34,2.77a10.2,10.2,0,0,0,.62,2.85,9.76,9.76,0,0,0,1.43,2.5,9.37,9.37,0,0,0,5.06,4.55,9,9,0,0,0,1.48.3c.25,0,.49,0,.74.05h.57a12,12,0,0,0,1.25-.13,8.31,8.31,0,0,0,2.14-.61c2,.2,3.76.4,5.55.66q.88-1.11,4.13-1.33c1,.24,2.09.55,3,.85l1.62.31-.1.81a22.74,22.74,0,0,1-8.67,1.35c-1.58,0-3.21-.1-4.85-.24l-2.47-.24L22.62,41l-.31,0-.15,0-.25,0a11.37,11.37,0,0,1-1.52-.19,11.66,11.66,0,0,1-6.66-2.57,12.33,12.33,0,0,1-4.14-6.29,12.73,12.73,0,0,1-.19-1.53l0-.76V29.2l0-1.1,0-2.17,0-1.09,0-.77a11.74,11.74,0,0,1,.14-1.49A12.49,12.49,0,0,1,11.91,17l.18.24a11.37,11.37,0,0,0-1.2,6.41l.11.76.14.32.27.63Z"/><path class="cls-4" d="M28.75,26.2l.06-.52,4.07-.81,3.14,0c1.48.08.45-1,4.85-.45l1.65,0L48,24.8l2.37.9,4.63.07c3.32-.13,6.49-.25,9.65-.44,2.61.27,5.24.48,7.86.69,2.17-.14,70.58,2.35,72.75,2.15.83,0,1.67-.15,2.51-.25,4.44.3,8.87.53,13.32.77l-.2,1.67c-2.82,0-5.8.09-8.63.17-2.14-.15-4.27-.29-6.41-.38-1.85.26-70.1-2.17-71.95-1.9l-2.39-.84L58.1,27.21C57,27,56,26.83,54.86,26.58c-.52.22-1,.39-1.55.56l-3.15,0L42.23,27c-3.81,0-7.46.07-11.28.13l-1.49,0C28.68,26.78,28.71,26.49,28.75,26.2Z"/><path class="cls-6" d="M165.49,31.82l.16-1.39c1.34-.16,2.69-.31,4-.52l7.93.11,5.52.95c2.18-.26,1.17-1.49,4.1-1.1,2.44.33.15,1.56,3,1.43,2.11.32,3.19-.36,5.68-.44l.13-1.1c1.85-.2,3.69-.35,5.52-.5l2.48,0c2-.14,4.17-.29,6.35-.49l0-.23,3.24-.82a46.65,46.65,0,0,0,7.14-.19,13.41,13.41,0,0,1,1.55.89c-1.12,1.08-2.41,2.16-3.53,3.24a5.7,5.7,0,0,0-1,1.14c-.35.17-.54.34-.89.51-.84.1-1.51.21-2.35.25-1.63-.2-3.1-.39-4.72-.65-.45-.35-.91-.71-1.52-1.12-1.84.2-3.68.35-5.52.5l-6.34-1a5.41,5.41,0,0,0-1,2.53c-.68.16-1.2.33-1.71.5-3.93-.4-5.43-.31-5.75,1-3.06.65-4.44,1.15-6.41,1.06-5.61-.14-6.09-1.71-8.56-1.8l-3.87-.93c-2.31,0-4.79-.07-7.08-.33C163.21,32.88,164.44,32.32,165.49,31.82Z"/><path class="cls-4" d="M169.81,28.82c1.65-1.31,4.59-1,7.2-.71,1.12-1.08,3.56-.7,4.86-.51A29.71,29.71,0,0,1,193,27.18c-.58.68-1.15,1.31-1.72,1.94l-4-.06L181.71,29l-3.17.24c-.36.28-.56.51-.92.79l-7.93-.11Z"/><path class="cls-4" d="M188.75,50.71c-1.68.26-.14,1.21-4.82.22C185.58,50.89,187.08,50.8,188.75,50.71Z"/><path class="cls-4" d="M198.67,27c3.69-.41,6.39-.83,7.37-2.15,1,0,2.17-.14,3.17-.24l4.79.07.06-.52c2.63.15,5.47-.09,6.55-.77,2.85-.3,4.06.64,6.18,1a18.55,18.55,0,0,0,1.36,2.51c-2.5.14-4.83.28-7.34.47l0,.23a46.65,46.65,0,0,1-7.14.19l-3.24.82-5.45-1.47c-3-.16-.47,1.15-3.3,1.34Z"/><path class="cls-2" d="M214.61,20.24c-1.5.09-3.17.18-4.83.22l-.1.86c-1.26.85,1.94.43,2.25,1.94l-4-.06a8.38,8.38,0,0,1-2.35-1.13l-4.49-1.16a19.77,19.77,0,0,1,2.44-1.06l6.28.09.2-1.67,4.79.07c1.69-.32,5.36-.56,6.41.38,1.2,1.06-2.57.77-2.67,1.58Z"/><path class="cls-2" d="M201.55,17.28l-2.48,0c-3.12-.27-6.22-.61-9.33-.94a2.57,2.57,0,0,0-.86.28c-2.95-.27-5.73-.49-8.69-.7-1.67.09-1.88-1-3.9-.58a12.78,12.78,0,0,0-1.52-1.18c4.45-1.26,7.73-.93,13.68-.9l3.86.92c1.18-.16,3-.53,4,.06-2,1.42,2.93.39,3.83,1.15a16.51,16.51,0,0,1,2.12,1.71Z"/><path class="cls-2" d="M165,9.81c-2.48-1.48-3.87-2.31-6.88-2a11.83,11.83,0,0,1-3.24.76,11.83,11.83,0,0,0,3.24-.76C161.16,7.5,162.54,8.33,165,9.81Z"/><path class="cls-2" d="M165,10.1l0-.29Z"/><path class="cls-2" d="M140.53,8.36c-.6.86-1.19,1.66-1.78,2.46l-9.56-.37C126.85,9.26,121.39,9.18,119,10c-3.51.24-4.4.75-5.72.73l-4-.06c-.49-.06-1-.19-1.62-.31L94.45,8.79l-7.9-.35-8,.4a2.09,2.09,0,0,1-.79-.3c-5.63,0-11.1.07-16.72,0-2.64-.09-5.27-.25-7.9-.4l-6.25-.32c-1.64-.14-3.11-.28-4.76-.36a26.22,26.22,0,0,0-4.76-.36c-.87.33-1.58.73-2.45,1.06l-4-.06c-2.67.13-5.33.27-8,.46l-.68-.09-.17,0h-.5c-.4,0-.8,0-1.2,0A16.11,16.11,0,0,0,8,15.83a16.32,16.32,0,0,0-1.62,8.35l0,.26,0,.08,0,.16.1.32.2.64.41,1.29c0,.66.05,1.33.09,2l0,.5c0,.41.05,1,.11,1.54a15,15,0,0,0,.75,3.14,14.64,14.64,0,0,0,13.19,10l.86,0h.4c4.73.65,6.54.73,7.9.4l12.73.18,5.26,1.75a23.72,23.72,0,0,1-8,.69c-1.37.44-2.58.89-4.13,1.33-2.33.08-5.1-.3-7.21.76-2.27-.44.45-2.48-3.74-2-1.47-.19-.39.46-1.56.56H22.14l-.78,0A18.41,18.41,0,0,1,4,33.53a15.86,15.86,0,0,1-.33-4v-.19l0-.11L3.8,29l.12-.39c.17-.5.36-.93.51-1.41l0-1.92,0-1.24a17.49,17.49,0,0,1,.56-4c-.49-.4-.92-.78-1.4-1.22a19.51,19.51,0,0,0-1,5.07l0,.56,0,.15,0,.3-.07.6-.29,2.3a5.9,5.9,0,0,1-1.37-1l.06-3.17a21.17,21.17,0,0,1,2.5-9.18A20.17,20.17,0,0,1,17.25,5.33a18.58,18.58,0,0,1,4.36-.72L23,4.52c.7,0,1.4,0,2.1,0,1.4,0,2.8.08,4.11.11,2.62.07,4.91,0,6.27-1,4,.93,7.81-.23,11.31-1.8L138,3.06a7.15,7.15,0,0,0,.63,1.69c-3.71.58-4.65,1.55-4.29,2.71,1.48.08,3.12.22,4.76.36a21.84,21.84,0,0,1,2.51-1.64l6.05,2C145.34,8.26,143,8.34,140.53,8.36Z"/><path class="cls-2" d="M107.56,32.34c2.23-.66,6.25.32,9.52-.73A12.94,12.94,0,0,1,118.57,33C114.48,32.61,112.57,34.78,107.56,32.34Z"/><path class="cls-2" d="M33.16,30.11c-1.42.14-3.17.19-5.09.2l-3,0-1.56,0H22.06V24.53h0c0-.23,0,0,0-.06s-.11-.05,0,0h0l5.69.05v.75l0,1.45c0,.95.08,1.85.14,2.68l-5.87.07h-.06s0,0,0,0,0,.06,0,0v-.09h0V24.26h.08l.23,0,1,.14h.83c1.87-.44,4-.52,8.72.41l-4.07.81-.06.52L25.21,26l-1.78-.11-.88-.06-.44,0,0,3.52v0c0,.1,0,.07,0,0s0,0,0,0l0,0h3.77V28.9l.08-3.36,0-.84v-.26H22.07c-.07,0,0,0,0,0s0,0,0,0v.12h0c0-.85,0,7.44,0,3.93h.15l1.69,0,3.37.08,6.71.15,2.54-.48,5.45.08c7.32,1.09,17.68.26,23.67,1.44,11.15-.48,19,1.49,32.39,1.85-20,1-33.07-1.75-53.05-.76-1.63-.2-4.73.8-4.76-.36C37.76,30.4,35.46,30.26,33.16,30.11Z"/><path class="cls-2" d="M36,24.92c1.48.08.45-1,4.85-.45C36.46,23.94,37.5,25,36,24.92Z"/><path class="cls-2" d="M48,24.8l-5.43-.31Z"/><path class="cls-2" d="M147.74,27.92c10-.38,14.31-2,21-2.7,5.86-.55,12.47-.46,18.34-1.12a40.88,40.88,0,0,1,7.87.63l11.07.16c-1,1.32-3.68,1.74-7.37,2.15l-5.65.15a29.71,29.71,0,0,0-11.14.42c-1.3-.19-3.74-.58-4.86.51-2.61-.33-5.56-.6-7.2.71H169c-2.15-.09-4.11-.23-6.25-.38a11.19,11.19,0,0,1-1.69.26C156.61,28.45,152.17,28.21,147.74,27.92Z"/><path class="cls-2" d="M168.81,51.29h.83l-.23,1.9-4-.06c-1.46-.25-2.58-.56-3.87-.87C163.93,52,166.29,51.6,168.81,51.29Z"/><path class="cls-2" d="M209.21,24.64c1.47.14.44-1,4.85-.45l-.06.52Z"/><path class="cls-7" d="M238.61,32.84c-.3,1.09-.46,2.54-6.83,3.19-1,.16-2.19.32-3.21.53-.45-.41-.9-.76-1.36-1.12-.74-.7-1.49-1.35-2.24-2l4-.23A65.93,65.93,0,0,1,238.61,32.84Z"/><path class="cls-7" d="M223.48,33.43c-3,.24-6,.49-8.85.68-1.23-.77-3.75-.52-6.45-.09a3.64,3.64,0,0,1-.7.28,5.19,5.19,0,0,0-.86.28c-2.13-.2-4.26-.41-6.38-.67h-.66c-4-1.56-3.6-.34-4.77-.3L190,33.52c-3.12-.16-6.25-.32-9.55-.43l-3.14,0a12.68,12.68,0,0,0-1.45-.31c-1-1.23-4.69-.94-6.38-.67L161.57,32c-3.86-1-5-.76-6.22-.61l-1.65,0-4.79-.07L145,30.33c.85-.22,1.72-.5,2.57-.77l9.42.14,4.79.07c1.64.2,3.1.39,4.73.65,3.76.4,4.18-.34,5.65-.21,1-.22,2-.37,3.21-.53l3.87.92c6.88.56,13-.45,18.94.79l4.8.07c2.65,0,5.3-.1,8-.17.95.42,2.06.78,3,1.2C217.11,32.7,221.32,32.07,223.48,33.43Z"/><path class="cls-7" d="M173.32,13.86c-1.31,1.25-4.37.57-6.54.72-.64-.18-1.45-.37-2.24-.61-.31-.18-.45-.35-.76-.53l.27-2.25c.33-.05.52-.16.85-.22C167.76,11.87,170.45,12.9,173.32,13.86Z"/><path class="cls-7" d="M148.63,14l-3.14,0c-.82-.07-1.63-.2-2.44-.32l.26-2.19,2.51-.25c.89.88,2,1.7,2.84,2.53Z"/><path class="cls-5" d="M238.94,29.36c0,.1,0,.13,0,.1s0-.05,0,0,.09,0,0,0h-7v-.24l0-.27-.05-.54-.23-2.19c0-.37-.06-.73-.08-1.1l0-.54v-.1h7.36c.1,0,0,0,0,0s0,0,0,0h0a.49.49,0,0,0,0,.07v0q0,3.85,0,7.69h-.11l-.14,0c-1.11-.36-2.06-.78-3-1.14L226.91,31c-5.35.44-10.64.37-15.93.29-2.66.08-5.31.15-8,.17l-4.8-.07c-6-1.24-12.06-.23-18.94-.79l-3.87-.92c-2.76-1.89-5-1-7-.91-1.14-.13-2.12-.26-3.27-.34-4-1.38-5.86-.89-6.28-.09l-1.66,0c-3.15,0-6.3.08-9.45.15l-1.58-.6c1.12-1.08.64-1.2.16-1.38a5.69,5.69,0,0,0-4.09,1A61.79,61.79,0,0,1,128,27.6c-1.82-.08-3.78-.23-5.58-.37-2.28-.38-3.88.58-4.89.8-1.31-.13-2.62-.27-3.94-.35-3,0-3.33-1.2-7-1.2-2.43-.44-2.08.78-3.24.76-2.14-.09-4.28-.23-6.24-.38l-4.74-.59c-2,.2-1.13,1.14-3.27,1.05l-6.45-.09-5.45-.08c-1.14-.19-2.11-.38-3.24-.62l.1-.81c-4.22-.7-4.67.28-6.31.2h-.83c-4.61-1.57-7.2-.68-8.76-.13-1.49,0-3.16.13-4.66.22-2.58-.56-6.47.08-7.83-1l-4-.06-3.24-.57-6.28-.09-4.85.45-4.73-.59-.5.06c-.09,0,0,0-.06.06a.24.24,0,0,0,0,.11l0,.05,0,0h.12c.11,0,0,0,.05.07v.34l0,1.36c-.19,1.14-.38,2.11-.57,3.08-.57-.56-1.14-1.13-1.65-1.68l0-2v-1a2.71,2.71,0,0,1,0-.33,1.36,1.36,0,0,1,0-.22,3.16,3.16,0,0,0,.9-.58,1.5,1.5,0,0,1,.54-.27.87.87,0,0,1,.34,0,1,1,0,0,1,.19,0l.66.07,3.37-.47,4.63.07c.63.18,1.11.36,1.59.54L35.5,23l3.08.56c1.72-.5,3.49-.12,5.71-.73,1.83-.09,3.67-.18,5.65-.21.21-.35.59-.74.79-1.09-.11-.4-.4-.76-.53-1.11,1.5-.09,3.17-.19,4.67-.22,1.36-.33,3.69-.41,4.7.88a42.9,42.9,0,0,0,8.85-.68c.49.06,1,.19,1.62.31l.63.24L78,20.81c.47.24.93.53,1.39.83l4,.06,3.14,0a10.12,10.12,0,0,0,1.72-.55,10.26,10.26,0,0,0,1.62.31l1.36,1.12,3.27-1.05c1.12.36,2.06.78,3.17,1.14l9.42.13,3.2-.47c1.15.08,2.13.2,3.27.34l0,.23c1.48.14,3.11.28,4.59.36l2.54-.48c.95.36,2.06.72,3,1.14l11.07.16c1.71-.44,3.73-.75,4.79.07,2.14.09,4.11.23,6.24.38,4.34-.29,6.88.68,11.22.39,1.48.14,3.11.28,4.59.36a8,8,0,0,0,3.9.63l4.92-1c1,.36,2.07.72,3,1.14l6.45.09,4.07-.81,2.22.9c1.31.08,2.62.21,3.93.35-.24.63,1.92.54,3.9.57l5.72-.73c1.81.09,3.61.22,5.42.37,2.18-.26,3.09.45,4.69.88l5.75-1A12.74,12.74,0,0,1,217,27c4.36.93,4.81,0,6.45.09h.83c.13.35.42.7.53,1.11l4.73.59c.92-2.12,4.21-.58,6.58-1a5.17,5.17,0,0,0,1.35.73,6.16,6.16,0,0,0,.74.22l.39.08.2,0h.19V24.53c0-.24,0-.07,0-.08l0,0H235v.07l0,.13,0,.27a33.79,33.79,0,0,1,.29,4.53h3.47c.24,0,0,0,.07,0s0,.17,0-.08Z"/><path class="cls-8" d="M172.21,30.2c-1.47-.14-1.89.61-5.65.21-1.63-.26-3.09-.45-4.73-.65L157,29.7l-9.42-.14c-.86.28-1.72.55-2.57.77l-11.9-.17-5.4-.6h-.82l-3.14,0c-2.92-.51-4.39-.7-5.52-.95a2.64,2.64,0,0,1-.89.57l-11-.45-3-1.43c1.16,0,.8-1.2,3.24-.76,3.64,0,4,1.21,7,1.2,1.32.08,2.63.21,3.94.35,1-.22,2.62-1.18,4.89-.8,1.8.14,3.77.29,5.58.37a61.79,61.79,0,0,0,14.25-.08,5.69,5.69,0,0,1,4.09-1c.48.18,1,.3-.16,1.38l1.58.6c3.15-.07,6.31-.14,9.45-.15l1.66,0c.42-.8,2.3-1.3,6.28.09,1.15.07,2.13.2,3.27.34,2-.09,4.26-1,7,.91C174.24,29.83,173.23,30,172.21,30.2Z"/><path class="cls-7" d="M133.15,30.16l-5.4-.6Z"/><path class="cls-7" d="M123.79,29.51c-1.36.27-.67,1.43-4.92,1a12.15,12.15,0,0,0-1.49-1.41,2.64,2.64,0,0,0,.89-.57C119.4,28.81,120.87,29,123.79,29.51Z"/><path class="cls-7" d="M124.92,12.87c-2.48,0-3.33,1.57-6.41,1-1.12-.36-2.06-.78-3.17-1.15-.65-.12-1.46-.25-2.28-.32-1,.39-3.1,1.06-8.79.16,2,0,2.93-1,5-1.89l4,.06c1.32,0,2.21-.49,5.72-.73A25.29,25.29,0,0,0,121,12.24C122.33,12.43,123.63,12.62,124.92,12.87Z"/><path class="cls-7" d="M106.34,28.68l-3.17.24a9.19,9.19,0,0,0-.73-.82c.37-.28.56-.57.93-.85Z"/><path class="cls-8" d="M101.32,10.86c-2.73.71-4.85.39-7.17.47l0,.23-1.65,0-3.3,1.34c-2.59-.5-6.8.07-8.63-1.22-2,0-2.94,1-7.21.77-.43-.53,1.08-.68,1-1.37l4,.06.27-2.25,8-.4,7.9.35,13.22,1.58C105.5,10.57,103.49,10.72,101.32,10.86Z"/><path class="cls-7" d="M101.13,12.53l-7-1,0-.23c2.32-.08,4.44.24,7.17-.47Z"/><path class="cls-7" d="M82.67,27.24c-1.51.21-.14,1.21-5.52.5-1.83,0-2.75.77-4.86.45-3.69.41-4.2-.87-8.56-1.8l3.2-.47h.83c3.51,1.15,4.26.35,6.22.61,1.13.25,2.1.43,3.24.63Z"/><path class="cls-7" d="M39.9,26.33l-1.65,0-11-.68-4.38-.06h-.79c0-.46,0,1,0-1h0v0a.39.39,0,0,0,0-.09.18.18,0,0,0,0,.06s-.09,0,0,0h1v.49l0,1.37.17,1.94c0,.32,0,.65,0,1v.19H22s0,0,0,0h0s0,0,0,0,0,.06,0,0v0l0-3.52.44,0,.88.06,1.78.11,3.54.17c.3.29.42.59.72.88l1.49,0C34.78,27,38.43,27,42.23,27c-1.29,1.08-2.28,1.07-5,1.84l-4.73-.59a11.15,11.15,0,0,1-1,1.66L26.64,30,22,30a.51.51,0,0,1-.4-.31s0-.08,0-.12,0,0,0-.06a.07.07,0,0,0,0,0v-.18c.19-1,.38-1.94.57-3.08l0-1.36V24.5s.06-.08-.05-.07H22l0,0,0-.05a.24.24,0,0,1,0-.11s0,0,.06-.06l.5-.06,4.73.59,4.85-.45,6.28.09,3.24.57A17,17,0,0,0,39.9,26.33Z"/><path class="cls-7" d="M20.84,13.65a6.51,6.51,0,0,0-3,1.09,6.29,6.29,0,0,0-1.3,1.3l-1.31,1.64A15.12,15.12,0,0,0,13.18,21a9.27,9.27,0,0,0-.67,2,7.69,7.69,0,0,0-.18,1l-.05.5,0,.24-.29,2-.55-1.28-.27-.63L11,24.42l-.11-.76a11.37,11.37,0,0,1,1.2-6.41A11.5,11.5,0,0,1,20.84,13.65Z"/><path class="cls-8" d="M32.48,28.22l4.73.59c1.44-1,6.67-.42,5-1.84l7.93.11,3.15,0,3,1.43a16.81,16.81,0,0,1,1.82-1.36l13.39.19,2.39.84c1.85-.26,70.1,2.16,71.95,1.9,2.14.09,4.28.24,6.41.38-1.25.79-2.34,1.58-3.6,2.43L75.95,30.24c-.79-.3-1.59-.6-2.21-.9-4,.63-5.59,1-7.43,1.28l-6.25-.32c-1.31-.13-2.62-.27-3.94-.35l-4-.06a18.26,18.26,0,0,1-2.24-.61l-2.58.83L37.08,30c-.34.06-.52.17-.85.22l-4.76-.3A11.15,11.15,0,0,0,32.48,28.22Z"/><path class="cls-7" d="M54.86,26.58c1.13.25,2.1.44,3.23.63a16.81,16.81,0,0,0-1.82,1.36l-3-1.43C53.82,27,54.34,26.8,54.86,26.58Z"/><path class="cls-7" d="M161.06,28.69a11.19,11.19,0,0,0,1.69-.26c2.14.15,4.1.29,6.25.38h.82l-.13,1.09c-1.35.21-2.69.36-4,.52l-4.79-.07Z"/><path class="cls-7" d="M159.29,50.57c2.52-.31,4.88-.68,7.24-1l2.45.32-.16,1.38c-2.52.31-4.88.68-7.24,1-.82-.07-1.63-.2-2.45-.32Z"/><path class="cls-7" d="M193,27.18l5.65-.15,3,1.43c2-1.59,4.45-1.27,5.78-1.3.94.47,2.88.79,3,1.43l0,.23c-2.18.2-4.34.34-6.35.49l-2.48,0c-1.83.15-3.68.3-5.52.5-1.62-.26-3.26-.45-4.72-.65C191.87,28.5,192.44,27.87,193,27.18Z"/><path class="cls-7" d="M227.43,38.55c-1.11-1.81,2.77-2.45,2.12-3.9a4.08,4.08,0,0,1,.88-.51h.83c1,.19,1.95.38,3.08.56,7.26.22,3.55,2.19,4.33,4-1.54.44-2.75.88-4.13,1.33l-2.32-1.42-4-.06Z"/><path class="cls-7" d="M233.26,43.89l3.87.86c-.41.63.48,1.51-3.37,1.92C231.93,45.32,230.26,44,233.26,43.89Z"/><path class="cls-5" d="M53.4,12.94c-2.34.14-4.83.27-7.18.47l-5.65.15.3-2.48,4.79.07a6.49,6.49,0,0,0,.76.59l7,.62Z"/><path class="cls-5" d="M51.29,16.78c-2.16.08-4.6-.3-4.66.22-1.51.15-2.69.31-4,.52-3.9-.58-5.46-.08-4.85.45-.67.11-1.18.16-1.69.26l-3.14,0a14.22,14.22,0,0,0-8.69-.7c1-1.14,1.94-2.34,2.91-3.54l2.31,0,10.25.15,11.73,1.56Z"/><path class="cls-5" d="M11.91,17a12.49,12.49,0,0,0-2.32,5.58,11.74,11.74,0,0,0-.14,1.49l0,.77,0,1.09,0,2.17,0,1.1v.35l0,.76a12.73,12.73,0,0,0,.19,1.53A4.41,4.41,0,0,0,8.2,34.08a15,15,0,0,1-.75-3.14c-.06-.5-.1-1.13-.11-1.54l0-.5c0-.67-.07-1.33-.09-2l.5-1.33L8,24.9l.13-.34,0-.09,0,0,0-.13.08-.51a12.88,12.88,0,0,1,3.54-7A2.33,2.33,0,0,0,11.91,17Z"/><path class="cls-5" d="M21.65,29.66A.51.51,0,0,0,22,30l4.59.07c-.21.4-.58.74-.8,1.14-1.24,0-2.56-.06-3.72,0a4.57,4.57,0,0,0-1.46.29,2.43,2.43,0,0,1-.78-1A19,19,0,0,0,21.65,29.66Z"/><path class="cls-8" d="M9.59,31.85a12.33,12.33,0,0,0,4.14,6.29,11.66,11.66,0,0,0,6.66,2.57,11.37,11.37,0,0,0,1.52.19l.25,0,.15,0,.31,0,1.23.13,2.47.24c1.64.14,3.27.23,4.85.24a22.74,22.74,0,0,0,8.67-1.35l.1-.81,8.76.13-.13,1.1,1.36,1.12c-.88.45-1.6.9-2.48,1.35,1.46.25,3.09.45,4.72.65l-.29,2.48c1.52-.27,3.21-.53,4.72-.74l5.59.31c-.91.68-1.81,1.3-2.55,1.93l-4,.23c-1.44-.48-2.54-1-3.81-1.44l-3.3,0-5.26-1.75.1-.81c-4.93-.3-8.87-.65-12.73-.18l-.1.81c-1.36.33-3.17.24-7.9-.4h-.4l-.86,0a14.66,14.66,0,0,1-13.19-10A4.41,4.41,0,0,1,9.59,31.85Z"/><path class="cls-5" d="M30.65,43.75c3.86-.46,7.8-.12,12.73.18l-.1.81-12.73-.18Z"/><path class="cls-5" d="M31.14,39.59q.88-1.11,4.13-1.33c1,.24,2.09.55,3,.85-1-.31-2.08-.61-3-.85Q32,38.48,31.14,39.59Z"/><path class="cls-5" d="M48.69,39.55l4.66-.22c.42.7,1.5,1.35-1,2.47l-2.48,0-1.36-1.12Z"/><path class="cls-9" d="M59.89,31.68a9.72,9.72,0,0,0,6.28.09l7.27.11,71,2.93L148.63,33l3.24.57,10.27-.08c2.28.27,4.77.3,7.08.33l3.87.93c2.47.09,2.95,1.66,8.56,1.8,2,.09,3.36-.41,6.41-1.06.32-1.33,1.82-1.42,5.75-1,.51-.17,1-.33,1.71-.5a5.41,5.41,0,0,1,1-2.53l6.34,1c1.84-.15,3.68-.29,5.52-.5.61.41,1.07.77,1.52,1.12,1.63.26,3.09.45,4.72.65l-2.68,1.64-5.62,1.31c-1.29,1.13-5.39,2.17-2.9,3.54l-1.72,1.94A11.63,11.63,0,0,1,203.78,44l1.65,0c.74.76,1.31,1.52,2,2.28l-4.09,1-1.62,1.08c-1.2.39-2.24.72-3.43,1-2.16.08-4.16.17-6.32.2a10,10,0,0,1-1.72.55l-1.55.5L185,49l-.79-.3-5.71.73c-3.17.19-6.33.31-9.49.44l-2.45-.32L162,48.41a5.54,5.54,0,0,1,4.06-.81l3.27-1.05c-2.7-2.35-7.58-.34-12.67-.7-1.63-.25-3.09-.45-4.72-.65-1.47-.19-3.1-.39-4.73-.65-1.76-.49-69.94-3.55-71.69-4.1l-1.65,0c-1.43-.54-.36-1.16-2.12-1.65L66,39.8c-.89-.82-2.2-1-6.24-.38-1.65-.08-3.12-.22-4.76-.36l.29-2.48c.84,0,1.67-.15,2.35-.26l11.9.17c1.39-.56,4.29.12,5.71-.73-8.4-.35-9.91-3-17.95-2.23l-3.21-.86Z"/><path class="cls-5" d="M52.16,43.77a4.39,4.39,0,0,1,4.43,1.74c-1.51.21-3.2.47-4.72.74Z"/><path class="cls-5" d="M62.19,45.82l2.31,0,4.85-.45c2.84-.25.9-2,5-1.32,2.75.5,73.65,3,73.31,4.41l3,1.14c-4,.12-74.38-2.4-78.36-2.29-1,.39-2.24.72-3.28,1.11l-3.13,0c-2.13-.26-4.25-.46-6.22-.67C60.38,47.12,61.28,46.5,62.19,45.82Z"/><path class="cls-5" d="M66.3,30.62c1.85-.26,3.39-.64,7.43-1.28.62.3,1.42.6,2.21.9a21.48,21.48,0,0,0-2.51,1.64l-7.27-.11Z"/><path class="cls-5" d="M148.63,33c1.26-.85,2.35-1.64,3.6-2.43,2.82-.07,5.81-.15,8.63-.17l4.79.07-.16,1.39c-1.05.5-2.28,1.07-3.34,1.63l-10.27.08Z"/><path class="cls-5" d="M184.18,48.73l.79.3,5.32,1.17-1.55.5c-1.66.09-3.17.19-4.82.22-.49-.07-1-.19-1.62-.31A19.5,19.5,0,0,0,184.18,48.73Z"/><path class="cls-5" d="M187.33,29.07l4,.06c1.46.19,3.1.39,4.72.65l-.13,1.1c-2.49.08-3.57.76-5.68.44-2.83.13-.53-1.1-3-1.43Z"/><path class="cls-6" d="M201.77,48.41l1.62-1.08,4.09-1c-.74-.76-1.31-1.52-2-2.28l-1.65,0a11.63,11.63,0,0,0-2.09-1.94l1.72-1.94c-2.49-1.37,1.61-2.41,2.9-3.54l5.62-1.31c.65,1.46,2,1.71,1.39,2.22a11.57,11.57,0,0,1-1.69.26c-5.85.49-3.82,1.56-6.54,2.1l5.52.95c.63.3,1.43.54,2.22.84l-.1.87-6.44,1.29,6.28.09a8.61,8.61,0,0,0,.6,1.92l4.69.94,8.59.12a7.93,7.93,0,0,1,1.56.83c-2.2,1.82-6.79,1.41-12.89,1.2l-4,.23c-1.45-.37-3-.8-4.67-1.16L204.84,49a3.38,3.38,0,0,0,.73.82c-2.47-.1-4.77-.24-7.24-.39C199.53,49.13,200.56,48.8,201.77,48.41Z"/><path class="cls-5" d="M211.63,37.74a11.57,11.57,0,0,0,1.69-.26l4,.06c-.44.86-.7,1.67-1.12,2.47-1.71.5-.84,1.55-3.34,1.63-.79-.3-1.59-.54-2.22-.84l-5.52-.95C207.81,39.3,205.79,38.24,211.63,37.74Z"/><path class="cls-5" d="M206.45,48c1.62.37,3.22.8,4.67,1.16l-5.55.73a3.38,3.38,0,0,1-.73-.82Z"/><path class="cls-5" d="M206.29,43.79l6.44-1.29c.47.24.93.53,1.56.83,4.66,1.22,5.88-.78,9.49-.44.55-.46,1.1-.85,1.82-1.36l8-.12a10.67,10.67,0,0,0-1.05,1.89l-6.38.77c.06.93.28,1.86.33,2.78l-8.59-.12-4.69-.94a8.61,8.61,0,0,1-.6-1.92Z"/><path class="cls-5" d="M222.34,28.47a13.41,13.41,0,0,0-1.55-.89l0-.23c2.51-.2,4.84-.34,7.34-.47,1.3.19,2.44.38,3.9.63l.63.24c-.62,1-1.24,2.06-1.85,3-1.15-.08-2.12-.2-3.11-.34-3,.48-6.06.84-8.92,1.26C219.93,30.64,221.21,29.56,222.34,28.47Z"/><path class="cls-8" d="M211.93,35.26l2.68-1.64c.83,0,1.51-.15,2.35-.25.35-.17.54-.34.89-.51a5.7,5.7,0,0,1,1-1.14c2.86-.42,5.89-.78,8.92-1.26,1,.13,2,.26,3.11.34a24,24,0,0,0,.43,3.36h-.83a4.08,4.08,0,0,0-.88.51c.65,1.45-3.23,2.09-2.12,3.9h.83l4,.06L234.54,40a7,7,0,0,0-1,1.37l-8,.12c-.72.51-1.27.91-1.82,1.36-3.6-.34-4.83,1.66-9.49.44-.63-.3-1.09-.59-1.56-.83l.1-.87c2.49-.08,1.63-1.13,3.34-1.63.43-.8.69-1.61,1.12-2.47l-4-.06C213.88,37,212.58,36.72,211.93,35.26Z"/><path class="cls-5" d="M224.83,41c-1-1.46-.42-2.09,2.6-2.45h.83l-.19,1.62A10.47,10.47,0,0,1,224.83,41Z"/><path class="cls-8" d="M238.61,32.84l-9.65.38-4,.23-1.49,0c-2.16-1.36-6.37-.73-9.49-.95-.94-.42-2.06-.78-3-1.2,5.29.08,10.58.15,15.93-.29l8.76.13c1,.36,1.9.78,3,1.14Z"/><path class="cls-8" d="M209.85,19.94l-6.28-.09.13-1.15a24.94,24.94,0,0,1-2.15-1.42l.69-.22c.11.46,2.62.21,6.35.9a13.79,13.79,0,0,1,1.45.31Z"/><path class="cls-8" d="M203,31.46l-4.8-.07Z"/><path class="cls-8" d="M166.25,19c-1.47-.14-3.11-.28-4.59-.36a11.85,11.85,0,0,1-1.52-1.12,6.7,6.7,0,0,1,1-1.37c1.77-1,4.65-.11,5.65-1.6,2.17-.14,5.23.54,6.54-.72.49.07,1,.19,1.46.25a12.78,12.78,0,0,1,1.52,1.18c-1.53,1.71,4.08,1.85,4.4,3.36a6.67,6.67,0,0,1-3.21.53Z"/><path class="cls-8" d="M151.8,13.78l-3.14,0c-.89-.82-2-1.65-2.84-2.53a20.21,20.21,0,0,1,4-.23l3,.91C152.45,12.52,152.21,13.15,151.8,13.78Z"/><path class="cls-8" d="M138.35,14.16c-1.94-.37-2.55.6-4,.52-1.6-.43-3.22-.8-4.66-1.22l-4.73-.59c-1.29-.25-2.59-.44-3.89-.63A25.29,25.29,0,0,1,119,10c2.41-.83,7.87-.75,10.21.44l9.56.37c1.46.25,3.09.45,4.56.64L143,13.66c.81.13,1.62.25,2.44.32-3.17.18-.53,1.73-4.13,1.33C140.24,14.94,139.3,14.53,138.35,14.16Z"/><path class="cls-8" d="M69,15.36a9.32,9.32,0,0,1-.73-.82l-7.9-.41a5.21,5.21,0,0,1-.86.28L53.4,12.94l.07-.58a16.63,16.63,0,0,1,1.78-1.07l5.46.08,5.62.08,3.84,1.15L70,13.76a17,17,0,0,1,7,.91l-.16,1.38C74.25,15.84,71.62,15.63,69,15.36Z"/><path class="cls-8" d="M74,26.53l-7-.62h.83c1.65.08,2.09-.89,6.31-.2Z"/><path class="cls-8" d="M40.58,13.57a2.79,2.79,0,0,1-.89.56L29.44,14l-2.31,0-2.86-.18-1.37-.09-.68,0h-.59c-.27,0-.53,0-.8,0a11.5,11.5,0,0,0-8.74,3.6L11.91,17a2.33,2.33,0,0,1-.14-.2A12.86,12.86,0,0,1,16.93,12a13.68,13.68,0,0,1,3.46-1.23c.31-.07.61-.11.92-.16l.47-.06a2.64,2.64,0,0,0,.35,0l.63-.16c2.12.26,4.07.58,6.19.9a6.06,6.06,0,0,1,.76.59l10.39-1,.79.3Z"/><path class="cls-8" d="M162,48.41l4.49,1.16c-2.35.31-4.71.68-7.24,1a3.15,3.15,0,0,0-.76-.53C160.37,49.89,159.83,48.84,162,48.41Z"/><path class="cls-8" d="M169,49.9c3.16-.13,6.32-.26,9.49-.44,1.11.42,2.06.78,3.18,1.15l-12,.69h-.83Z"/><path class="cls-8" d="M178.54,29.23l3.17-.24,5.62.08-.1.81c-2.93-.39-1.92.84-4.1,1.1L177.62,30C178,29.74,178.18,29.51,178.54,29.23Z"/><path class="cls-8" d="M226.12,44.08l6.38-.77a2.09,2.09,0,0,0,.76.59c-3,.13-1.33,1.43.5,2.78-2,.32-3.89.7-5.75,1a7.93,7.93,0,0,0-1.56-.83C226.39,45.93,226.17,45,226.12,44.08Z"/><path class="cls-6" d="M235.38,29.43a33.79,33.79,0,0,0-.29-4.53l0-.27,0-.13v-.07H239l0,0s0-.16,0,.08v4.33h-.19l-.2,0-.39-.08a6.16,6.16,0,0,1-.74-.22,5.17,5.17,0,0,1-1.35-.73c-2.36.43-5.66-1.12-6.58,1a2.53,2.53,0,0,1-.86.28l-3.87-.87c-.11-.41-.41-.76-.53-1.11h-.83c-1.63-.14-2.08.84-6.45-.09a12.74,12.74,0,0,0-1.45-.31l-5.75,1c-1.6-.43-2.51-1.13-4.69-.88-1.81-.14-3.61-.28-5.42-.37l-5.72.73c-2,0-4.15.05-3.9-.57-1.31-.14-2.62-.27-3.93-.35l-2.22-.9-4.07.81-6.45-.09c-.94-.42-2.06-.78-3-1.14l-4.92,1a8,8,0,0,1-3.9-.63c-1.48-.08-3.12-.22-4.59-.36-4.34.28-6.87-.68-11.22-.39-2.13-.15-4.1-.29-6.24-.38-1.06-.82-3.09-.5-4.79-.07L123.62,24c-.95-.42-2.06-.78-3-1.14,2.51-1.58,6.89-.82,10.38-1l4.81-.16,5.6.31c2.42.5,3.07-.77,6.34-.43l.07-.58c2,.2,3.7-1.91,6.25.38-1.35.15-2.68.31-4,.52l6.25,1.71,8-.41-2.24-2a11.8,11.8,0,0,0,1.68-.26c1.31.14,2.61.27,3.93.35,3,.22,5.74.43,8.69.7a3.08,3.08,0,0,0,.77.53l5.45.08.06-.52c2.19-.32,4-.23,7.9.4,3.82-.12,5.87-.61,10.61-1.52l4.49,1.16A8.38,8.38,0,0,0,208,23.21l4,.06a14.1,14.1,0,0,1,1.42.6l5.61.08c2.58.56,5.16,1.17,7.74,1.79,2.07,0,4.3,0,6.49.08,1.09,0,2.18,0,3.23,0l1.55-.06.75-.05.19,0,0-1.17v-.06c0-.08,0,0,0,0s0,0,0,0h0l-2,.14c0,.56-.08,1.12-.14,1.68s-.14,1.12-.23,1.67q-.07.41-.16.82l-.09.4-.05.2,0,.1h-.83Z"/><path class="cls-9" d="M147.74,21.53c-3.27-.34-3.92.93-6.34.43l-5.6-.31-4.81.16c-3.5.18-7.88-.58-10.38,1l-2.54.48c-1.48-.08-3.12-.22-4.59-.36l0-.23c-1.14-.13-2.12-.26-3.27-.34-.93-.59-2-1.13-2.94-1.72-3.76,1-9.22,1-9.42-.14-1.19.27-2.21.54-3.4.76-1.5.09-3.16.19-4.66.22a10.26,10.26,0,0,1-1.62-.31,12.49,12.49,0,0,0-1.49-1.41l.06-.52-1.29-1.7,4-.23c2.13.21,4.09.41,6.21.67,1.1.48,3.12.22,4.76.36L106,19c.48.12,1,.19,1.45.31l3.14,0,5.65-.21a17.3,17.3,0,0,1,1.75-.78c1.87,1,7.44,0,6.91,1.77l5.45.08,5.6.31c3,.16,7.35.86,11.86.46Z"/><path class="cls-6" d="M107,22.85l-9.42-.13c-1.12-.36-2.06-.78-3.17-1.14l-1.62,1.08-1.65,0L89.8,21.5c1.49,0,3.16-.13,4.66-.22,1.19-.22,2.21-.49,3.4-.76.2,1.1,5.66,1.18,9.42.14.93.59,2,1.13,2.94,1.72Z"/><path class="cls-6" d="M75.95,30.24,148.63,33l3.24.57c-2,1.42-5.23.79-7.44,1.28l-71-2.93A21.48,21.48,0,0,1,75.95,30.24Z"/><path class="cls-6" d="M184.18,48.73l.79.3-2.67,1.58h-.66c-1.12-.36-2.07-.72-3.18-1.15Z"/><path class="cls-9" d="M199.67,26.15c-1.3-.19-2.6-.38-3.9-.63-3.66.18-5.76-.26-6.28-1.48a4.06,4.06,0,0,0,.89-.51l13.43,1.29Z"/><path class="cls-9" d="M156.27,23.56,150,21.85c1.35-.21,2.69-.37,4-.52l6.48-.2,1.49,0,2.24,2Z"/><path class="cls-9" d="M42.47,18.62a2.6,2.6,0,0,0-.86.28L37.74,18c-.6-.53.95-1,4.85-.45Z"/><path class="cls-9" d="M47.13,31.73c.8.24,1.6.43,2.41.61-1.32,1.37-4.84.33-6.57,1l-1.36-1.12C43.45,32.08,45.29,31.93,47.13,31.73Z"/><path class="cls-4" d="M199.59,33.89l-4.79-.07,0-.23C196,33.55,195.63,32.33,199.59,33.89Z"/><path class="cls-4" d="M200.25,33.9h0Z"/><path class="cls-2" d="M48,24.8c2.94-1.06,8.61,0,11.17-.65.72-.51,2.17-.14,5.55.66,3.67-.24,6.75-1.12,11.18-.71.32.11,4.65.39,11,.77L110,26.18c16.86.92,33.89,1.83,35.19,2-2.18.2-70.59-2.29-72.75-2.15-2.62-.21-5.25-.42-7.86-.69-3.17.19-6.33.31-9.65.44l-4.63-.07Z"/><path class="cls-8" d="M103.36,27.25c-.36.28-.56.57-.93.85L97,28a43.35,43.35,0,0,1-7.86-.69c2.14.09,1.26-.85,3.27-1.05l4.74.59C99.09,27,101.22,27.16,103.36,27.25Z"/><path class="cls-8" d="M78.55,8.85a2.09,2.09,0,0,1-.79-.3A2.09,2.09,0,0,0,78.55,8.85Z"/><path class="cls-8" d="M66.94,25.91l-3.2.47-5.56-.6C59.73,25.23,62.32,24.34,66.94,25.91Z"/></g></g><path class="cls-10" d="M78.12,16.06l2.31,5.34,1.85-5.34h1.35L81.1,22.71a3.58,3.58,0,0,1-.85,1.41,1.76,1.76,0,0,1-1.24.45,2,2,0,0,1-1-.22V23.19a1.66,1.66,0,0,0,.94.31.9.9,0,0,0,.55-.18.82.82,0,0,0,.31-.49l-3.07-6.77Z"/><path class="cls-10" d="M87.53,16.06l2.24,2.69L92,16.06h1.18v6.82H91.87V18.09h0l-2,2.4h-.19l-2-2.4h0v4.79H86.34V16.06Z"/><path class="cls-10" d="M101,16.06v1H97.91v1.79h3v1h-3v1.94h3.16v1H96.59V16.06Z"/><path class="cls-10" d="M105.52,16.06v2.87h3.54V16.06h1.32v6.82h-1.32V20h-3.54v2.88H104.2V16.06Z"/><path class="cls-10" d="M115.1,16.06v2.66h1.1a2.79,2.79,0,0,1,1.83.56,2,2,0,0,1,0,3,2.7,2.7,0,0,1-1.79.56h-2.48V16.06Zm1.18,5.79a1.07,1.07,0,0,0,.79-.29,1,1,0,0,0,.29-.75,1,1,0,0,0-.3-.77,1.09,1.09,0,0,0-.8-.3H115.1v2.11Z"/><path class="cls-10" d="M123,16.06v5.72h2.34V16.06h1.32v5.72h2.32V16.06h1.32v6.82h-8.62V16.06Z"/><path class="cls-10" d="M135,16.06v4.77l4.23-4.77h.7v6.82h-1.3v-4.6l-4.24,4.65h-.68V16.06Z"/><path class="cls-10" d="M149,16.06v1h-2.42v5.79h-1.32V17.09h-2.42v-1Z"/><path class="cls-10" d="M153.17,16.06v2.66h1.1a2.79,2.79,0,0,1,1.83.56,2,2,0,0,1,0,3,2.7,2.7,0,0,1-1.79.56h-2.48V16.06Zm1.18,5.79a1.07,1.07,0,0,0,.79-.29,1,1,0,0,0,.29-.75,1,1,0,0,0-.3-.77,1.09,1.09,0,0,0-.8-.3h-1.16v2.11Z"/><path class="cls-10" d="M65.63,33.06a2.2,2.2,0,0,1,1.55.55,1.86,1.86,0,0,1,.6,1.43,1.84,1.84,0,0,1-.61,1.43,2.29,2.29,0,0,1-1.6.55H64.31v2.86H63V33.06ZM65.3,36a1.27,1.27,0,0,0,.82-.24.87.87,0,0,0,.29-.72q0-.94-1.21-.94h-.9V36Z"/><path class="cls-10" d="M72,33.06v4.77l4.23-4.77H77v6.82h-1.3v-4.6l-4.24,4.65h-.68V33.06Z"/><path class="cls-10" d="M83.93,33a4.92,4.92,0,0,1,1.14.13,5.73,5.73,0,0,1,1.2.45V34.8a5.67,5.67,0,0,0-1.16-.52A3.85,3.85,0,0,0,84,34.11a2.82,2.82,0,0,0-1.31.3,2.19,2.19,0,0,0-.91.85,2.46,2.46,0,0,0,0,2.44,2.16,2.16,0,0,0,.91.84,2.88,2.88,0,0,0,1.32.3,3.53,3.53,0,0,0,1.07-.16,7.74,7.74,0,0,0,1.29-.58v1.24a5.93,5.93,0,0,1-1.22.49,5.13,5.13,0,0,1-1.3.15,4.22,4.22,0,0,1-1.93-.43,3.22,3.22,0,0,1-1.33-1.24,3.36,3.36,0,0,1-.49-1.77,3.49,3.49,0,0,1,.5-1.85A3.36,3.36,0,0,1,82,33.42,4.31,4.31,0,0,1,83.93,33Z"/><path class="cls-10" d="M90.8,33.06v2.73h.07a1.48,1.48,0,0,0,.67-.14,1.35,1.35,0,0,0,.43-.41,4,4,0,0,0,.4-.75,3.73,3.73,0,0,1,.52-.91,1.41,1.41,0,0,1,.58-.41,2.4,2.4,0,0,1,.85-.13l.33,0v1a1.8,1.8,0,0,0-.59.07.77.77,0,0,0-.33.25,3.23,3.23,0,0,0-.34.65,1.94,1.94,0,0,1-1,1.16,2.38,2.38,0,0,1,.87.64,6.58,6.58,0,0,1,.82,1.26L95,39.88H93.52l-.84-1.6a5.26,5.26,0,0,0-.57-.88,1.8,1.8,0,0,0-.55-.46,1.71,1.71,0,0,0-.76-.14v3.09h-1.3V33.06Z"/><path class="cls-10" d="M108.73,33.06v6.82h-1.33V34.13H103.8v5.75h-1.32V33.06Z"/><path class="cls-10" d="M115.62,33a4.1,4.1,0,0,1,1.91.44,3.45,3.45,0,0,1,0,6.11,4.31,4.31,0,0,1-3.86,0,3.37,3.37,0,0,1-1.83-3,3.43,3.43,0,0,1,.48-1.76,3.36,3.36,0,0,1,1.33-1.28A4.07,4.07,0,0,1,115.62,33Zm-2.41,3.5a2.43,2.43,0,0,0,.31,1.22,2.13,2.13,0,0,0,.86.84,2.56,2.56,0,0,0,1.24.3,2.37,2.37,0,0,0,1.73-.66,2.27,2.27,0,0,0,.68-1.7,2.46,2.46,0,0,0-.3-1.22,2.11,2.11,0,0,0-.86-.84,2.6,2.6,0,0,0-1.25-.3,2.57,2.57,0,0,0-1.25.3,2.08,2.08,0,0,0-.85.84A2.49,2.49,0,0,0,113.21,36.48Z"/><path class="cls-10" d="M125.15,33.06a2.2,2.2,0,0,1,1.55.55,1.86,1.86,0,0,1,.6,1.43,1.84,1.84,0,0,1-.61,1.43,2.29,2.29,0,0,1-1.6.55h-1.27v2.86h-1.32V33.06ZM124.83,36a1.27,1.27,0,0,0,.82-.24.87.87,0,0,0,.29-.72q0-.94-1.21-.94h-.9V36Z"/><path class="cls-10" d="M135.92,33.06v1h-2.42v5.79h-1.32V34.09h-2.42v-1Z"/><path class="cls-10" d="M142.74,33v.7a4.08,4.08,0,0,1,1.71.34,2.6,2.6,0,0,1,1.13,1,2.64,2.64,0,0,1,.4,1.45,2.53,2.53,0,0,1-1.53,2.39,4.08,4.08,0,0,1-1.7.34v.73h-1.3v-.73a4,4,0,0,1-1.7-.35,2.64,2.64,0,0,1-1.13-1,2.58,2.58,0,0,1-.4-1.42,2.65,2.65,0,0,1,.4-1.44,2.58,2.58,0,0,1,1.13-1,4.09,4.09,0,0,1,1.71-.34V33Zm-3.19,3.44a1.57,1.57,0,0,0,.5,1.23,2,2,0,0,0,1.38.46V34.77a2,2,0,0,0-1.39.45A1.57,1.57,0,0,0,139.55,36.46Zm3.19,1.69a2.07,2.07,0,0,0,1.39-.45,1.55,1.55,0,0,0,.5-1.23,1.6,1.6,0,0,0-.5-1.25,2,2,0,0,0-1.39-.45Z"/><path class="cls-10" d="M153.48,33.06v1h-3.09v1.79h3v1h-3v1.94h3.16v1h-4.48V33.06Z"/><path class="cls-10" d="M160,33.06l3.08,6.82h-1.37l-2.27-5.25-2.19,5.25h-1.33l3-6.82Z"/><path class="cls-10" d="M170.77,33.06v6.82h-1.32V37.14h-.28a1.75,1.75,0,0,0-1.08.33,3.12,3.12,0,0,0-.82,1.06l-.71,1.35H165l.76-1.39a6.26,6.26,0,0,1,.71-1.08,2.3,2.3,0,0,1,.77-.61,1.74,1.74,0,0,1-1.47-1.73,1.8,1.8,0,0,1,.66-1.47,2.74,2.74,0,0,1,1.78-.54Zm-3.59,2a.92.92,0,0,0,.34.75,1.44,1.44,0,0,0,.94.28h1v-2h-1a1.5,1.5,0,0,0-1,.27A.89.89,0,0,0,167.17,35.08Z"/></g></svg>